<svg aria-hidden="true" style="position: absolute; width: 0; height: 0; overflow: hidden;" version="1.1" xmlns="http://www.w3.org/2000/svg" xmlns:xlink="http://www.w3.org/1999/xlink">
<defs>
<symbol id="icon-burger" viewBox="0 0 32 32">
<path d="M16 32c8.837 0 16-7.163 16-16s-7.163-16-16-16c-8.837 0-16 7.163-16 16s7.163 16 16 16z"></path>
<path d="M8.8 11.2v1.44h14.4v-1.44h-14.4zM8.8 15.52v1.44h14.4v-1.44h-14.4zM8.8 21.28v-1.44h14.4v1.44h-14.4z"></path>
</symbol>
<symbol id="icon-webovio-footer" viewBox="0 0 200 32">
<path d="M166.41 6.397c1.819 0 3.269-1.45 3.269-3.241 0-1.763-1.45-3.156-3.212-3.156-1.763 0-3.185 1.45-3.185 3.213 0 1.791 1.394 3.184 3.128 3.184zM101.786 25.105v-21.778h5.26v5.971c0 0 2.331-1.99 5.373-1.99 5.146 0 8.188 4.35 8.188 9.098 0 4.862-3.099 9.126-8.017 9.126-2.303 0-4.009-0.654-5.629-2.246v1.82h-5.175zM90.499 25.531c-5.373 0-9.070-3.27-9.070-9.126 0-5.288 3.781-9.098 8.927-9.098 5.032 0 8.586 3.326 8.586 9.553l0.001 0.151c0.001 0.088 0.004 0.168 0.006 0.244v0.001c0.006 0.213 0.011 0.399-0.007 0.655h-12.282c0.455 2.075 2.104 3.070 4.094 3.070 1.635 0 2.74-1.087 3.623-2.212l0.158-0.205c0 0 2.578 1.486 3.788 2.213l0.335 0.203c-1.535 2.729-4.492 4.549-8.16 4.549zM58.144 25.105l-6.653-17.457h5.572l3.469 9.667 3.184-9.667h4.236l3.355 9.723 3.44-9.723h5.487l-6.567 17.457h-4.578l-3.241-9.382-3.127 9.382h-4.577zM90.3 11.742c1.649 0 2.559 0.796 3.184 2.473h-6.624c0.654-1.62 1.649-2.473 3.44-2.473zM111.225 12.197c2.388 0 4.123 1.877 4.123 4.094 0 2.474-1.308 4.549-3.895 4.549-2.758 0-4.549-1.734-4.549-4.435 0-2.53 1.848-4.208 4.321-4.208zM132.037 25.702c-5.345 0-9.439-4.378-9.439-9.24 0-5.231 4.179-9.155 9.552-9.155 5.289 0 9.411 3.81 9.411 9.069 0 5.317-3.838 9.325-9.524 9.325zM132.122 12.282c2.474 0 4.179 1.763 4.179 4.009 0 2.729-1.592 4.407-4.207 4.407-2.417 0-4.208-1.82-4.208-4.151 0-2.388 1.677-4.265 4.236-4.265zM154.838 25.105h-4.719l-7.307-17.457h5.914l3.81 10.207 3.582-10.207h5.572l-6.852 17.457zM169.082 7.648h-5.288v17.457h5.288v-17.457zM171.926 16.462c0 4.862 4.094 9.24 9.439 9.24 5.686 0 9.524-4.009 9.524-9.325 0-5.26-4.122-9.069-9.411-9.069-5.373 0-9.552 3.924-9.552 9.155zM185.629 16.291c0-2.246-1.706-4.009-4.179-4.009-2.559 0-4.236 1.877-4.236 4.265 0 2.331 1.791 4.151 4.208 4.151 2.615 0 4.207-1.677 4.207-4.407z"></path>
<path d="M196.064 18.808c1.791 0 3.269 1.478 3.269 3.27s-1.478 3.27-3.269 3.27c-1.792 0-3.27-1.478-3.27-3.27s1.478-3.27 3.27-3.27z"></path>
<path d="M28.506 26.821c-1.011 1.685-3.454 1.685-4.465 0l-14.099-23.499h28.065c2.024 0 3.274 2.208 2.233 3.943l-11.733 19.556z"></path>
<path d="M14.099 26.821c1.011 1.685 3.454 1.685 4.465 0l14.099-23.499h-28.065c-2.024 0-3.274 2.208-2.233 3.943l11.733 19.556z"></path>
<path d="M9.941 3.322h22.723l-11.361 18.936-11.362-18.936z"></path>
</symbol>
<symbol id="icon-webovio-header" viewBox="0 0 206 32">
<path d="M171.165 6.58c1.871 0 3.362-1.491 3.362-3.334 0-1.813-1.491-3.246-3.304-3.246s-3.275 1.491-3.275 3.304c0 1.842 1.433 3.275 3.217 3.275zM110.017 25.822h-5.322v-22.4h5.41v6.141c0 0 2.398-2.047 5.527-2.047 5.293 0 8.422 4.474 8.422 9.358 0 5.001-3.188 9.387-8.247 9.387-2.368 0-4.123-0.673-5.79-2.31v1.872zM93.085 26.261c-5.527 0-9.329-3.363-9.329-9.387 0-5.439 3.89-9.358 9.182-9.358 5.176 0 8.831 3.421 8.831 9.826l0.002 0.156c0.002 0.091 0.004 0.173 0.006 0.252 0.006 0.22 0.012 0.411-0.007 0.674h-12.633c0.468 2.135 2.164 3.158 4.211 3.158 1.682 0 2.818-1.118 3.726-2.275l0.163-0.211c0 0 2.651 1.529 3.895 2.276l0.345 0.209c-1.579 2.807-4.621 4.679-8.393 4.679zM59.806 25.822l-6.843-17.955h5.732l3.568 9.943 3.275-9.943h4.357l3.451 10.001 3.538-10.001h5.644l-6.755 17.955h-4.708l-3.334-9.65-3.217 9.65h-4.708zM92.88 12.078c1.696 0 2.632 0.819 3.275 2.544h-6.814c0.673-1.667 1.696-2.544 3.538-2.544zM114.403 12.545c2.456 0 4.24 1.93 4.24 4.211 0 2.544-1.345 4.679-4.006 4.679-2.836 0-4.678-1.784-4.678-4.562 0-2.603 1.901-4.328 4.445-4.328zM135.81 26.436c-5.498 0-9.709-4.503-9.709-9.504 0-5.381 4.298-9.416 9.826-9.416 5.439 0 9.679 3.919 9.679 9.329 0 5.469-3.948 9.592-9.796 9.592zM135.897 12.633c2.544 0 4.299 1.813 4.299 4.123 0 2.807-1.638 4.533-4.328 4.533-2.486 0-4.328-1.872-4.328-4.27 0-2.456 1.725-4.387 4.357-4.387zM159.262 25.822h-4.854l-7.515-17.955h6.082l3.918 10.498 3.685-10.498h5.732l-7.048 17.955zM173.914 7.866h-5.439v17.955h5.439v-17.955zM176.838 16.932c0 5.001 4.211 9.504 9.709 9.504 5.849 0 9.797-4.123 9.797-9.592 0-5.41-4.241-9.329-9.68-9.329-5.526 0-9.826 4.036-9.826 9.416zM190.933 16.756c0-2.31-1.754-4.123-4.298-4.123-2.632 0-4.358 1.93-4.358 4.387 0 2.398 1.842 4.27 4.328 4.27 2.69 0 4.328-1.725 4.328-4.533z"></path>
<path d="M201.666 19.345c1.842 0 3.362 1.521 3.362 3.363s-1.52 3.363-3.362 3.363c-1.842 0-3.363-1.521-3.363-3.363s1.521-3.363 3.363-3.363z"></path>
<path d="M29.32 27.587c-1.040 1.734-3.553 1.734-4.593 0l-14.502-24.17h28.867c2.082 0 3.367 2.271 2.296 4.056l-12.069 20.114z"></path>
<path d="M14.502 27.587c1.040 1.734 3.553 1.734 4.593 0l14.502-24.17h-28.867c-2.082 0-3.367 2.271-2.296 4.056l12.069 20.114z"></path>
<path d="M10.225 3.417h23.372l-11.685 19.477-11.687-19.477z"></path>
</symbol>
</defs>
</svg>
