<!-- Generated by IcoMoon.io -->
<svg version="1.1" xmlns="http://www.w3.org/2000/svg" width="206" height="32" viewBox="0 0 206 32">
<path fill="#fff" d="M171.165 6.58c1.871 0 3.362-1.491 3.362-3.334 0-1.813-1.491-3.246-3.304-3.246s-3.275 1.491-3.275 3.304c0 1.842 1.433 3.275 3.217 3.275zM110.017 25.822h-5.322v-22.4h5.41v6.141c0 0 2.398-2.047 5.527-2.047 5.293 0 8.422 4.474 8.422 9.358 0 5.001-3.188 9.387-8.247 9.387-2.368 0-4.123-0.673-5.79-2.31v1.872zM93.085 26.261c-5.527 0-9.329-3.363-9.329-9.387 0-5.439 3.89-9.358 9.182-9.358 5.176 0 8.831 3.421 8.831 9.826l0.002 0.156c0.002 0.091 0.004 0.173 0.006 0.252 0.006 0.22 0.012 0.411-0.007 0.674h-12.633c0.468 2.135 2.164 3.158 4.211 3.158 1.682 0 2.818-1.118 3.726-2.275l0.163-0.211c0 0 2.651 1.529 3.895 2.276l0.345 0.209c-1.579 2.807-4.621 4.679-8.393 4.679zM59.806 25.822l-6.843-17.955h5.732l3.568 9.943 3.275-9.943h4.357l3.451 10.001 3.538-10.001h5.644l-6.755 17.955h-4.708l-3.334-9.65-3.217 9.65h-4.708zM92.88 12.078c1.696 0 2.632 0.819 3.275 2.544h-6.814c0.673-1.667 1.696-2.544 3.538-2.544zM114.403 12.545c2.456 0 4.24 1.93 4.24 4.211 0 2.544-1.345 4.679-4.006 4.679-2.836 0-4.678-1.784-4.678-4.562 0-2.603 1.901-4.328 4.445-4.328zM135.81 26.436c-5.498 0-9.709-4.503-9.709-9.504 0-5.381 4.298-9.416 9.826-9.416 5.439 0 9.679 3.919 9.679 9.329 0 5.469-3.948 9.592-9.796 9.592zM135.897 12.633c2.544 0 4.299 1.813 4.299 4.123 0 2.807-1.638 4.533-4.328 4.533-2.486 0-4.328-1.872-4.328-4.27 0-2.456 1.725-4.387 4.357-4.387zM159.262 25.822h-4.854l-7.515-17.955h6.082l3.918 10.498 3.685-10.498h5.732l-7.048 17.955zM173.914 7.866h-5.439v17.955h5.439v-17.955zM176.838 16.932c0 5.001 4.211 9.504 9.709 9.504 5.849 0 9.797-4.123 9.797-9.592 0-5.41-4.241-9.329-9.68-9.329-5.526 0-9.826 4.036-9.826 9.416zM190.933 16.756c0-2.31-1.754-4.123-4.298-4.123-2.632 0-4.358 1.93-4.358 4.387 0 2.398 1.842 4.27 4.328 4.27 2.69 0 4.328-1.725 4.328-4.533z"></path>
<path fill="#fff" d="M201.666 19.345c1.842 0 3.362 1.521 3.362 3.363s-1.52 3.363-3.362 3.363c-1.842 0-3.363-1.521-3.363-3.363s1.521-3.363 3.363-3.363z"></path>
<path fill="#ffd723" d="M29.32 27.587c-1.040 1.734-3.553 1.734-4.593 0l-14.502-24.17h28.867c2.082 0 3.367 2.271 2.296 4.056l-12.069 20.114z"></path>
<path fill="#fff" d="M14.502 27.587c1.040 1.734 3.553 1.734 4.593 0l14.502-24.17h-28.867c-2.082 0-3.367 2.271-2.296 4.056l12.069 20.114z"></path>
<path fill="#f6f6f6" d="M10.225 3.417h23.372l-11.685 19.477-11.687-19.477z"></path>
</svg>
