<!-- Generated by IcoMoon.io -->
<svg version="1.1" xmlns="http://www.w3.org/2000/svg" width="200" height="32" viewBox="0 0 200 32">
<path fill="#fff" d="M166.41 6.397c1.819 0 3.269-1.45 3.269-3.241 0-1.763-1.45-3.156-3.212-3.156-1.763 0-3.185 1.45-3.185 3.213 0 1.791 1.394 3.184 3.128 3.184zM101.786 25.105v-21.778h5.26v5.971c0 0 2.331-1.99 5.373-1.99 5.146 0 8.188 4.35 8.188 9.098 0 4.862-3.099 9.126-8.017 9.126-2.303 0-4.009-0.654-5.629-2.246v1.82h-5.175zM90.499 25.531c-5.373 0-9.070-3.27-9.070-9.126 0-5.288 3.781-9.098 8.927-9.098 5.032 0 8.586 3.326 8.586 9.553l0.001 0.151c0.001 0.088 0.004 0.168 0.006 0.244v0.001c0.006 0.213 0.011 0.399-0.007 0.655h-12.282c0.455 2.075 2.104 3.070 4.094 3.070 1.635 0 2.74-1.087 3.623-2.212l0.158-0.205c0 0 2.578 1.486 3.788 2.213l0.335 0.203c-1.535 2.729-4.492 4.549-8.16 4.549zM58.144 25.105l-6.653-17.457h5.572l3.469 9.667 3.184-9.667h4.236l3.355 9.723 3.44-9.723h5.487l-6.567 17.457h-4.578l-3.241-9.382-3.127 9.382h-4.577zM90.3 11.742c1.649 0 2.559 0.796 3.184 2.473h-6.624c0.654-1.62 1.649-2.473 3.44-2.473zM111.225 12.197c2.388 0 4.123 1.877 4.123 4.094 0 2.474-1.308 4.549-3.895 4.549-2.758 0-4.549-1.734-4.549-4.435 0-2.53 1.848-4.208 4.321-4.208zM132.037 25.702c-5.345 0-9.439-4.378-9.439-9.24 0-5.231 4.179-9.155 9.552-9.155 5.289 0 9.411 3.81 9.411 9.069 0 5.317-3.838 9.325-9.524 9.325zM132.122 12.282c2.474 0 4.179 1.763 4.179 4.009 0 2.729-1.592 4.407-4.207 4.407-2.417 0-4.208-1.82-4.208-4.151 0-2.388 1.677-4.265 4.236-4.265zM154.838 25.105h-4.719l-7.307-17.457h5.914l3.81 10.207 3.582-10.207h5.572l-6.852 17.457zM169.082 7.648h-5.288v17.457h5.288v-17.457zM171.926 16.462c0 4.862 4.094 9.24 9.439 9.24 5.686 0 9.524-4.009 9.524-9.325 0-5.26-4.122-9.069-9.411-9.069-5.373 0-9.552 3.924-9.552 9.155zM185.629 16.291c0-2.246-1.706-4.009-4.179-4.009-2.559 0-4.236 1.877-4.236 4.265 0 2.331 1.791 4.151 4.208 4.151 2.615 0 4.207-1.677 4.207-4.407z"></path>
<path fill="#edb91b" d="M196.064 18.808c1.791 0 3.269 1.478 3.269 3.27s-1.478 3.27-3.269 3.27c-1.792 0-3.27-1.478-3.27-3.27s1.478-3.27 3.27-3.27z"></path>
<path fill="#edb91b" d="M28.506 26.821c-1.011 1.685-3.454 1.685-4.465 0l-14.099-23.499h28.065c2.024 0 3.274 2.208 2.233 3.943l-11.733 19.556z"></path>
<path fill="#fff" d="M14.099 26.821c1.011 1.685 3.454 1.685 4.465 0l14.099-23.499h-28.065c-2.024 0-3.274 2.208-2.233 3.943l11.733 19.556z"></path>
<path fill="#eef0e7" d="M9.941 3.322h22.723l-11.361 18.936-11.362-18.936z"></path>
</svg>
